<svg xmlns="http://www.w3.org/2000/svg" fill="none" viewBox="-1.2 -1.2 24 24" id="Neo4j--Streamline-Svg-Logos" height="24" width="24" style="background-color: #ffffff">
  <desc>
    Neo4j Streamline Icon: https://streamlinehq.com
  </desc>
  <path fill="#000000" d="M4.158270000000001 8.76627h0.0097425c-1.15272 0 -1.9276807500000002 0.663975 -1.9276807500000002 1.970505v0.7963875c0.11895075 -0.0516825 0.24627825 -0.08136 0.37581074999999997 -0.08761500000000001 0.13149000000000002 -0.0052875000000000005 0.26199000000000006 0.024997500000000002 0.37773 0.08761500000000001V10.736775c0 -0.8411625 0.4653675 -1.28511 1.16829 -1.28511 0.7029225 0 1.1683125 0.44394750000000005 1.1683125 1.28511v2.0367224999999998h0.7535475V10.736775c0 -1.30653 -0.77886 -1.970505 -1.9257525 -1.970505Zm2.3424300000000002 2.0581424999999998h-0.007785c0 -1.19556 0.8625825 -2.0581424999999998 2.1029174999999998 -2.0581424999999998 1.240335 0 2.0815200000000003 0.8684325 2.0815200000000003 2.0581424999999998v0.26676h-3.3880500000000002c0.0881325 0.64575 0.6555825 1.1168099999999999 1.30653 1.084545 0.510165 0 0.86454 -0.15381 1.086525 -0.4867875h0.8255925c-0.3096 0.7301925 -1.0183725 1.19556 -1.92573 1.19556 -1.2189375000000002 0 -2.0815200000000003 -0.8625825 -2.0815200000000003 -2.0600775000000002Zm3.4094700000000002 -0.38943c-0.14233500000000002 -0.5980725 -0.6927525 -1.0082025000000001 -1.30653 -0.9735975 -0.6084225 -0.0334575 -1.15155 0.37863 -1.2831750000000002 0.9735975h2.589705Zm1.1819250000000001 0.38943c0 -1.17054 0.842535 -2.0300625 2.0509875 -2.0574675l0.059715000000000004 -0.000675c0.5565825 -0.02205 1.09764 0.18612 1.49589 0.57555 0.39825 0.38940749999999996 0.618525 0.9256724999999999 0.608985 1.4825925 0 1.197495 -0.86454 2.0600775000000002 -2.1048750000000003 2.0600775000000002 -1.240335 0 -2.1107025000000004 -0.8625825 -2.1107025000000004 -2.0600775000000002Zm3.43089 0c0.0211725 -0.36396 -0.1141875 -0.71964 -0.37197 -0.9774225000000001 -0.257805 -0.25778249999999997 -0.6134625 -0.3931425 -0.9774225000000001 -0.37197 -0.36227250000000005 -0.0143775 -0.7140825000000001 0.12309750000000001 -0.9706275000000001 0.3792825 -0.2565675 0.256185 -0.39453750000000004 0.607815 -0.3807 0.9701100000000001 -0.0211725 0.364455 0.11438999999999999 0.72063 0.37255499999999997 0.9787725 0.2581425 0.258165 0.614295 0.3937275 0.9787725 0.3725325 0.8197650000000001 0.023377500000000002 1.3493925 -0.5529825 1.3493925 -1.351305Zm6.5872125 -1.79334v3.71907c0 0.973575 -0.37775250000000005 1.4622975 -1.3513275 1.4622975h-0.1557675v-0.6405975h0.0895725c0.4867875 0 0.663975 -0.22198500000000002 0.663975 -0.77886V9.0310725h0.7535475ZM18.58473 8.271675c0.3846825 0.12332250000000002 0.64485 0.48201750000000004 0.6425775 0.8859600000000001v2.398905h0.44199v0.663975h-0.44199V13.151250000000001h-0.7535475v-0.930735h-1.9043325c-0.35739000000000004 0.0157725 -0.692685 -0.173025 -0.8645174999999999 -0.4867875 -0.142245 -0.29115 -0.098685 -0.6388875 0.11097000000000001 -0.8859600000000001l1.70181 -2.2372875000000003c0.2412225 -0.33702750000000004 0.6755850000000001 -0.47492999999999996 1.06704 -0.338805Zm-0.247275 0.7146225h-0.0662175c-0.063405 0.0026775 -0.121545 0.03609 -0.1557675 0.0895725l-1.6784325 2.1924900000000003c-0.028597499999999998 0.0299025 -0.044617500000000004 0.06961500000000001 -0.044797500000000004 0.11099250000000001 0 0.1075275 0.0871875 0.194715 0.194715 0.194715h1.8829124999999998V9.163485c0 -0.13241250000000002 -0.08763750000000001 -0.1771875 -0.13241250000000002 -0.1771875Z" stroke-width="0.25"></path>
  <path fill="#018bff" d="M20.732377500000002 7.298055000000001c-0.35487 0 -0.642555 0.287685 -0.642555 0.642555s0.287685 0.642555 0.642555 0.642555 0.642555 -0.287685 0.642555 -0.642555 -0.287685 -0.642555 -0.642555 -0.642555Z" stroke-width="0.25"></path>
  <path fill="#018bff" d="M2.57328 11.821275c-0.13842 -0.0071775 -0.274095 0.0403875 -0.37774125 0.13241250000000002l-0.7087635 -0.46343249999999997c0.0190665 -0.057015 0.027 -0.11715750000000001 0.023364 -0.1771875 0.0007897500000000001 -0.260055 -0.15526575 -0.49495500000000003 -0.39530925000000006 -0.595035 -0.24004575 -0.1000575 -0.51674175 -0.045562500000000006 -0.7009155 0.1380375 -0.184176 0.18362250000000002 -0.23950867500000003 0.46014750000000004 -0.14016825000000002 0.7004925000000001 0.09934200000000001 0.2403675 0.33376500000000003 0.397125 0.5938335 0.397125 0.13794075 0.007965 0.27331425000000004 -0.039735 0.3757995 -0.13241250000000002l0.70876575 0.4867875c-0.0175365 0.05735250000000001 -0.02478825 0.1173375 -0.02142 0.17721 -0.0035775000000000004 0.05985000000000001 0.0036765 0.11988000000000001 0.02142 0.1771875l-0.70876575 0.4887225c-0.10617525 -0.0865125 -0.23883975 -0.13394250000000002 -0.3757995 -0.1343475 -0.25989075 0 -0.49419225000000006 0.156555 -0.5936490000000001 0.39665249999999996 -0.099456075 0.24012 -0.04448025 0.5164875 0.13929075000000002 0.7002674999999999 0.18377100000000002 0.18378 0.46014750000000004 0.2387475 0.70025625 0.1392975 0.2401065 -0.0994725 0.3966615 -0.33376500000000003 0.3966615 -0.5936625 0.0037822499999999996 -0.0600075 -0.0041535 -0.12019500000000001 -0.023364 -0.1771875l0.7087635 -0.4867875c0.10688625 0.08637750000000001 0.24033374999999998 0.133155 0.37774125 0.13241250000000002 0.17023500000000003 0 0.3334725 -0.06777000000000001 0.45366750000000006 -0.188325 0.12019500000000001 -0.12055500000000001 0.18747000000000003 -0.283995 0.186975 -0.45423 0.0022500000000000003 -0.358605 -0.28219500000000003 -0.6534225 -0.6406425 -0.6639975Z" stroke-width="0.25"></path>
</svg>